<svg width="46" height="46" viewBox="0 0 46 46" fill="none" xmlns="http://www.w3.org/2000/svg">
<path d="M22.7002 3.7832C17.7441 3.7832 13.7148 7.81244 13.7148 12.7686C13.7148 17.6302 17.5171 21.5648 22.4732 21.7351C22.6246 21.7162 22.7759 21.7162 22.8894 21.7351C22.9272 21.7351 22.9462 21.7351 22.984 21.7351C23.0029 21.7351 23.0029 21.7351 23.0218 21.7351C27.8645 21.5648 31.6667 17.6302 31.6856 12.7686C31.6856 7.81244 27.6564 3.7832 22.7002 3.7832Z" fill="white"/>
<path d="M32.3117 26.7668C27.034 23.2483 18.4269 23.2483 13.1113 26.7668C10.7089 28.3747 9.38477 30.5501 9.38477 32.8769C9.38477 35.2036 10.7089 37.3601 13.0924 38.9491C15.7408 40.7273 19.2214 41.6164 22.7021 41.6164C26.1827 41.6164 29.6634 40.7273 32.3117 38.9491C34.6952 37.3412 36.0194 35.1847 36.0194 32.839C36.0005 30.5123 34.6952 28.3558 32.3117 26.7668Z" fill="white"/>
</svg>
